<svg width="16" height="15" viewBox="0 0 16 15" fill="none" xmlns="http://www.w3.org/2000/svg">
<path d="M7.66667 7.1875C6.6125 7.1875 5.75 6.85208 5.07917 6.18125C4.40833 5.51042 4.07292 4.64792 4.07292 3.59375C4.07292 2.53958 4.40833 1.67708 5.07917 1.00625C5.75 0.335417 6.6125 0 7.66667 0C8.72083 0 9.58333 0.335417 10.2542 1.00625C10.925 1.67708 11.2604 2.53958 11.2604 3.59375C11.2604 4.64792 10.925 5.51042 10.2542 6.18125C9.58333 6.85208 8.72083 7.1875 7.66667 7.1875ZM0 14.8781V12.626C0 12.0191 0.151736 11.5 0.455208 11.0687C0.758681 10.6375 1.15 10.3101 1.62917 10.0865C2.69931 9.60729 3.72552 9.24792 4.70781 9.00833C5.6901 8.76875 6.67639 8.64896 7.66667 8.64896C8.65694 8.64896 9.63924 8.77274 10.6135 9.02031C11.5878 9.26788 12.6094 9.62481 13.6783 10.0911C14.1783 10.3167 14.5791 10.6439 14.8808 11.0726C15.1825 11.5013 15.3333 12.0191 15.3333 12.626V14.8781H0ZM1.4375 13.4406H13.8958V12.626C13.8958 12.3705 13.82 12.1269 13.6682 11.8953C13.5165 11.6637 13.3288 11.492 13.1052 11.3802C12.083 10.8851 11.1486 10.5457 10.3021 10.362C9.45555 10.1783 8.57708 10.0865 7.66667 10.0865C6.75625 10.0865 5.86979 10.1783 5.00729 10.362C4.14479 10.5457 3.21042 10.8851 2.20417 11.3802C1.98056 11.492 1.79688 11.6637 1.65312 11.8953C1.50937 12.1269 1.4375 12.3705 1.4375 12.626V13.4406ZM7.66667 5.75C8.28958 5.75 8.80469 5.54635 9.21198 5.13906C9.61927 4.73177 9.82292 4.21667 9.82292 3.59375C9.82292 2.97083 9.61927 2.45573 9.21198 2.04844C8.80469 1.64115 8.28958 1.4375 7.66667 1.4375C7.04375 1.4375 6.52865 1.64115 6.12135 2.04844C5.71406 2.45573 5.51042 2.97083 5.51042 3.59375C5.51042 4.21667 5.71406 4.73177 6.12135 5.13906C6.52865 5.54635 7.04375 5.75 7.66667 5.75Z" fill="#665A48"/>
</svg>
