<svg width="154" height="42" viewBox="0 0 154 42" fill="none" xmlns="http://www.w3.org/2000/svg">
<g clip-path="url(#clip0_236_101)">
<path d="M28.6483 12.3667L17.1568 0.94993C15.8766 -0.321891 13.8011 -0.321891 12.521 0.94993C11.2408 2.22175 11.2408 4.28378 12.521 5.5556L24.0125 16.9724C25.2926 18.2442 27.3682 18.2442 28.6483 16.9724C29.9284 15.7006 29.9284 13.6386 28.6483 12.3667Z" fill="#665A48"/>
<path d="M12.4569 0.949914L0.965367 12.3667C-0.314777 13.6385 -0.314777 15.7006 0.965366 16.9724C2.24551 18.2442 4.32103 18.2442 5.60118 16.9724L17.0927 5.55558C18.3728 4.28376 18.3728 2.22173 17.0927 0.949913C15.8126 -0.321907 13.737 -0.321907 12.4569 0.949914Z" fill="#665A48"/>
<path d="M19.5295 20.4371H3.27801C1.46762 20.4371 0 21.8952 0 23.6938C0 25.4925 1.46762 26.9505 3.27801 26.9505H19.5295C21.3399 26.9505 22.8075 25.4925 22.8075 23.6938C22.8075 21.8952 21.3399 20.4371 19.5295 20.4371Z" fill="#665A48"/>
<path d="M26.2839 20.4371H10.0324C8.22201 20.4371 6.75439 21.8952 6.75439 23.6938C6.75439 25.4925 8.22201 26.9505 10.0324 26.9505H26.2839C28.0943 26.9505 29.5619 25.4925 29.5619 23.6938C29.5619 21.8952 28.0943 20.4371 26.2839 20.4371Z" fill="#665A48"/>
<path d="M19.5295 35.4866H3.27801C1.46762 35.4866 0 36.9446 0 38.7433C0 40.5419 1.46762 42 3.27801 42H19.5295C21.3399 42 22.8075 40.5419 22.8075 38.7433C22.8075 36.9446 21.3399 35.4866 19.5295 35.4866Z" fill="#665A48"/>
<path d="M26.2839 35.4866H10.0324C8.22201 35.4866 6.75439 36.9446 6.75439 38.7433C6.75439 40.5419 8.22201 42 10.0324 42H26.2839C28.0943 42 29.5619 40.5419 29.5619 38.7433C29.5619 36.9446 28.0943 35.4866 26.2839 35.4866Z" fill="#665A48"/>
<path d="M0 23.6938L0 38.51C0 40.3086 1.46762 41.7667 3.27801 41.7667C5.08841 41.7667 6.55603 40.3086 6.55603 38.51L6.55603 23.6938C6.55603 21.8952 5.08841 20.4371 3.27801 20.4371C1.46762 20.4371 0 21.8952 0 23.6938Z" fill="#665A48"/>
<path d="M16.1462 23.9271V38.7433C16.1462 40.5419 17.6139 42 19.4243 42C21.2347 42 22.7023 40.5419 22.7023 38.7433V23.9271C22.7023 22.1285 21.2347 20.6704 19.4243 20.6704C17.6139 20.6704 16.1462 22.1285 16.1462 23.9271Z" fill="#665A48"/>
<path d="M49.2989 41.067C46.3299 41.067 44.0979 40.6659 42.6035 39.863V35.7395C44.7038 36.5025 46.7132 36.8832 48.6324 36.8832C50.7327 36.8832 51.7832 36.2512 51.7832 34.987C51.7832 34.4053 51.6166 33.9892 51.2833 33.7379C50.9501 33.4873 50.2881 33.2616 49.2989 33.0607L47.7841 32.7597C46.027 32.4391 44.7189 31.8168 43.8608 30.8936C43.0019 29.971 42.5732 28.506 42.5732 26.4991C42.5732 24.4923 43.2042 22.9881 44.4667 21.8639C45.7286 20.7404 47.6122 20.1783 50.1169 20.1783C52.6216 20.1783 54.6507 20.5297 56.1458 21.2318V25.2952C54.247 24.6533 52.4194 24.332 50.6622 24.332C48.8036 24.332 47.875 24.9144 47.875 26.0777C47.875 26.5999 48.0462 26.9912 48.3901 27.2516C48.7332 27.5127 49.3595 27.7332 50.2684 27.9138L51.7832 28.1847C53.7017 28.5458 55.1104 29.1832 56.0095 30.0959C56.9077 31.0094 57.3576 32.4391 57.3576 34.385C57.3576 36.5521 56.6707 38.2076 55.2975 39.3513C53.9236 40.4951 51.9241 41.067 49.2989 41.067Z" fill="#9F8772"/>
<path d="M64.4764 40.7359V24.5728H59.114V20.5094H75.5344V24.5728H70.2023V40.7359H64.4764Z" fill="#9F8772"/>
<path d="M82.4117 40.7359V24.5728H77.0493V20.5094H93.4697V24.5728H88.1376V40.7359H82.4117Z" fill="#9F8772"/>
<path d="M105.103 41.067C102.195 41.067 99.8415 40.2347 98.0442 38.5688C96.2462 36.9035 95.3479 34.385 95.3479 31.0139V30.3518C95.3479 28.606 95.6153 27.0665 96.1507 25.7316C96.6855 24.3975 97.4232 23.3342 98.3623 22.5411C99.3015 21.7488 100.347 21.1566 101.498 20.7653C102.649 20.374 103.901 20.1783 105.255 20.1783C108.143 20.1783 110.491 21.0113 112.298 22.6766C114.106 24.3425 115.01 26.8603 115.01 30.2314V30.8936C115.01 32.6393 114.742 34.1796 114.207 35.5137C113.672 36.8486 112.935 37.9119 111.995 38.7042C111.056 39.4973 110.011 40.0888 108.86 40.4801C107.709 40.8713 106.456 41.067 105.103 41.067ZM105.224 36.9434C107.749 36.9434 109.011 35.0472 109.011 31.2547V30.2314C109.011 28.1448 108.703 26.6346 108.087 25.7015C107.471 24.7684 106.486 24.3019 105.133 24.3019C102.589 24.3019 101.316 26.1883 101.316 29.9605V30.9838C101.316 33.1111 101.634 34.6363 102.271 35.5589C102.907 36.4822 103.891 36.9434 105.224 36.9434Z" fill="#9F8772"/>
<path d="M127.067 41.067C123.916 41.067 121.487 40.2347 119.781 38.5688C118.074 36.9035 117.221 34.385 117.221 31.0139V30.3217C117.221 28.5361 117.478 26.9762 117.993 25.6413C118.508 24.3072 119.23 23.2484 120.159 22.4659C121.088 21.6833 122.144 21.1069 123.325 20.7352C124.507 20.3642 125.825 20.1783 127.279 20.1783C129.642 20.1783 131.409 20.4696 132.581 21.0512V25.1748C131.288 24.6932 129.904 24.4524 128.43 24.4524C125.017 24.4524 123.31 26.2786 123.31 29.9304V30.8334C123.31 32.8402 123.699 34.3354 124.477 35.3181C125.254 36.3016 126.552 36.7929 128.37 36.7929C129.945 36.7929 131.419 36.5123 132.793 35.9502V39.9834C131.197 40.7058 129.288 41.067 127.067 41.067Z" fill="#9F8772"/>
<path d="M135.732 40.7359V20.5094H141.427V29.81L147.82 20.5094H153.576L146.911 30.0507L154 40.7359H147.638L141.427 31.4353V40.7359H135.732Z" fill="#9F8772"/>
</g>
<defs>
<clipPath id="clip0_236_101">
<rect width="154" height="42" fill="white"/>
</clipPath>
</defs>
</svg>
