<svg width="60" height="60" viewBox="0 0 60 60" fill="none" xmlns="http://www.w3.org/2000/svg">
<circle cx="30" cy="30" r="30" fill="#9F8772"/>
<path d="M23.1027 26.0334C22.4343 26.0334 21.8612 25.7954 21.3834 25.3194C20.9056 24.8434 20.6667 24.2712 20.6667 23.6027C20.6667 22.9343 20.9047 22.3612 21.3807 21.8834C21.8568 21.4056 22.429 21.1667 23.0974 21.1667C23.7659 21.1667 24.339 21.4047 24.8167 21.8807C25.2945 22.3568 25.5334 22.929 25.5334 23.5974C25.5334 24.2659 25.2954 24.839 24.8194 25.3167C24.3434 25.7945 23.7712 26.0334 23.1027 26.0334ZM20.1942 43.3334C19.7981 43.3334 19.4445 43.2056 19.1334 42.9501C18.8223 42.6945 18.6667 42.3779 18.6667 42.0001C18.1167 42.0001 17.6459 41.8042 17.2542 41.4126C16.8626 41.0209 16.6667 40.5501 16.6667 40.0001V31.3334H20.6667V30.4069C20.6667 29.6246 20.9445 28.9556 21.5001 28.4001C22.0556 27.8445 22.7265 27.5667 23.5127 27.5667C23.9265 27.5667 24.3223 27.6445 24.7001 27.8001C25.0779 27.9556 25.4112 28.189 25.7001 28.5001L27.4334 30.4667C27.589 30.6445 27.7501 30.8056 27.9167 30.9501C28.0834 31.0945 28.2556 31.2223 28.4334 31.3334H38.0001V20.2001C38.0001 19.7792 37.8612 19.4184 37.5834 19.1177C37.3056 18.8171 36.9556 18.6667 36.5334 18.6667C36.3138 18.6667 36.1034 18.689 35.902 18.7334C35.7007 18.7779 35.5223 18.8779 35.3667 19.0334L33.6334 20.7667C33.7445 21.1445 33.7612 21.5279 33.6834 21.9167C33.6056 22.3056 33.4667 22.6779 33.2667 23.0334L29.8667 19.8001C30.232 19.5572 30.6233 19.4021 31.0406 19.3346C31.458 19.2671 31.8667 19.3112 32.2667 19.4667L34.0001 17.7667C34.3334 17.4334 34.7172 17.1667 35.1514 16.9667C35.5856 16.7667 36.0463 16.6667 36.5334 16.6667C37.5065 16.6667 38.3276 17.0112 38.9966 17.7001C39.6656 18.389 40.0001 19.2223 40.0001 20.2001V31.3334H43.3334V40.0001C43.3334 40.5501 43.1376 41.0209 42.7459 41.4126C42.3542 41.8042 41.8834 42.0001 41.3334 42.0001C41.3334 42.3779 41.1779 42.6945 40.8667 42.9501C40.5556 43.2056 40.189 43.3334 39.7667 43.3334H20.1942ZM18.6667 40.0001H41.3334V33.3334H18.6667V40.0001Z" fill="white"/>
</svg>
