<svg width="60" height="60" viewBox="0 0 60 60" fill="none" xmlns="http://www.w3.org/2000/svg">
<circle cx="30" cy="30" r="30" fill="#9F8772"/>
<path d="M32.8666 43.9333L22.4999 40.9667V42.8667H15.3333V29.7333H25.6333L34.1333 32.9333C34.7333 33.1556 35.2388 33.5167 35.6499 34.0167C36.061 34.5167 36.2666 35.2333 36.2666 36.1667H40.0666C40.9999 36.1667 41.7777 36.5 42.3999 37.1667C43.0221 37.8333 43.3333 38.7333 43.3333 39.8667V40.7333L32.8666 43.9333ZM17.3333 40.8667H20.4666V31.7333H17.3333V40.8667ZM32.7333 41.8667L41.2666 39.2667C41.1333 38.8444 40.9666 38.5556 40.7666 38.4C40.5666 38.2444 40.3333 38.1667 40.0666 38.1667H33.1666C32.4999 38.1667 31.8833 38.1222 31.3166 38.0333C30.7499 37.9444 30.211 37.8222 29.6999 37.6667L26.9999 36.8333L27.7333 34.9L30.1666 35.7C30.7221 35.8778 31.2499 36 31.7499 36.0667C32.2499 36.1333 33.0444 36.1667 34.1333 36.1667C34.1333 35.8778 34.0833 35.6111 33.9833 35.3667C33.8833 35.1222 33.711 34.9444 33.4666 34.8333L25.2999 31.7333H22.4999V38.8667L32.7333 41.8667ZM33.6666 30.6333L31.6666 29.8667V28.6667C31.6666 27.4667 31.2443 26.4444 30.3997 25.6C29.555 24.7556 28.5329 24.3333 27.3333 24.3333C26.1999 24.3333 25.2666 24.6667 24.5333 25.3333C23.7999 26 23.3221 26.8 23.0999 27.7333H21.0333C21.2555 26.4 21.8444 25.2556 22.7999 24.3C23.7555 23.3444 24.9333 22.7111 26.3333 22.4V19H24.3333V17H31.3333C31.9843 17 32.5971 17.0944 33.1716 17.2833C33.746 17.4722 34.2888 17.7333 34.7999 18.0667L33.3333 19.5333C33.0221 19.3556 32.7055 19.2222 32.3833 19.1333C32.061 19.0444 31.711 19 31.3333 19H28.3333V22.4C29.8666 22.701 31.1388 23.4374 32.1499 24.6091C33.161 25.7808 33.6666 27.1333 33.6666 28.6667V30.6333ZM39.5929 26.5333C38.9309 26.5333 38.3666 26.2983 37.8999 25.8283C37.4333 25.3583 37.1999 24.7933 37.1999 24.1333C37.1999 23.6278 37.3888 23.0015 37.7666 22.2542C38.1444 21.507 38.7555 20.5333 39.5999 19.3333C40.4444 20.5111 41.0555 21.4778 41.4333 22.2333C41.811 22.9889 41.9999 23.6222 41.9999 24.1333C41.9999 24.7933 41.7642 25.3583 41.2929 25.8283C40.8215 26.2983 40.2548 26.5333 39.5929 26.5333Z" fill="white"/>
</svg>
