<svg width="60" height="60" viewBox="0 0 60 60" fill="none" xmlns="http://www.w3.org/2000/svg">
<circle cx="30" cy="30" r="30" fill="#9F8772"/>
<path d="M23.9438 23.9791V19.7999H26.0688V23.9791H23.9438ZM23.9438 36.7645V29.8228H26.0688V36.7645H23.9438ZM20.7917 44.1666C20.2074 44.1666 19.7071 43.9585 19.291 43.5424C18.8748 43.1262 18.6667 42.626 18.6667 42.0416V17.9583C18.6667 17.3739 18.8748 16.8736 19.291 16.4575C19.7071 16.0413 20.2074 15.8333 20.7917 15.8333H39.2084C39.7928 15.8333 40.2931 16.0413 40.7092 16.4575C41.1253 16.8736 41.3334 17.3739 41.3334 17.9583V42.0416C41.3334 42.626 41.1253 43.1262 40.7092 43.5424C40.2931 43.9585 39.7928 44.1666 39.2084 44.1666H20.7917ZM20.7917 42.0416H39.2084V27.9458H20.7917V42.0416ZM20.7917 25.8208H39.2084V17.9583H20.7917V25.8208Z" fill="white"/>
</svg>
