<svg width="60" height="60" viewBox="0 0 60 60" fill="none" xmlns="http://www.w3.org/2000/svg">
<circle cx="30" cy="30" r="30" fill="#9F8772"/>
<path d="M19.4187 42.5C19.1354 42.5 18.8875 42.3937 18.675 42.1812C18.4625 41.9688 18.3562 41.7208 18.3562 41.4375V39.95H17.8958C16.8137 39.95 15.8938 39.5712 15.1363 38.8137C14.3788 38.0562 14 37.1363 14 36.0542V27.4125C14 26.2083 14.366 25.2934 15.0979 24.6677C15.8299 24.042 16.6917 23.7292 17.6833 23.7292V20.6833C17.6833 19.5972 18.0257 18.7118 18.7104 18.0271C19.3951 17.3424 20.2806 17 21.3667 17H37.8354C38.9215 17 39.801 17.3424 40.474 18.0271C41.1469 18.7118 41.4833 19.5972 41.4833 20.6833V23.7292C42.475 23.7292 43.3368 24.042 44.0688 24.6677C44.8007 25.2934 45.1667 26.2083 45.1667 27.4125V36.0542C45.1667 37.1363 44.7879 38.0562 44.0304 38.8137C43.2729 39.5712 42.353 39.95 41.2708 39.95H40.8104V41.4375C40.8104 41.7208 40.7042 41.9688 40.4917 42.1812C40.2792 42.3937 40.0312 42.5 39.7479 42.5C39.4646 42.5 39.2167 42.3937 39.0042 42.1812C38.7917 41.9688 38.6854 41.7208 38.6854 41.4375V39.95H20.4812V41.4375C20.4812 41.7208 20.375 41.9688 20.1625 42.1812C19.95 42.3937 19.7021 42.5 19.4187 42.5ZM17.8958 37.825H41.2708C41.7431 37.825 42.1562 37.6479 42.5104 37.2938C42.8646 36.9396 43.0417 36.5264 43.0417 36.0542V27.4125C43.0417 26.9403 42.9 26.5625 42.6167 26.2792C42.3333 25.9958 41.9556 25.8542 41.4833 25.8542C41.0111 25.8542 40.6333 25.9958 40.35 26.2792C40.0667 26.5625 39.925 26.9403 39.925 27.4125V33.6458H19.2417V27.4125C19.2417 26.9403 19.1 26.5625 18.8167 26.2792C18.5333 25.9958 18.1556 25.8542 17.6833 25.8542C17.2111 25.8542 16.8333 25.9958 16.55 26.2792C16.2667 26.5625 16.125 26.9403 16.125 27.4125V36.0542C16.125 36.5264 16.3021 36.9396 16.6562 37.2938C17.0104 37.6479 17.4236 37.825 17.8958 37.825ZM21.3667 31.5208H37.8V27.4125C37.8 26.6806 37.9653 26.0726 38.2958 25.5885C38.6264 25.1045 38.9806 24.7208 39.3583 24.4375V20.6833C39.3583 20.2111 39.2167 19.8333 38.9333 19.55C38.65 19.2667 38.2753 19.125 37.8091 19.125H21.3575C20.8914 19.125 20.5167 19.2667 20.2333 19.55C19.95 19.8333 19.8083 20.2111 19.8083 20.6833V24.4375C20.1861 24.7208 20.5403 25.1045 20.8708 25.5885C21.2014 26.0726 21.3667 26.6806 21.3667 27.4125V31.5208Z" fill="white"/>
</svg>
