<svg width="60" height="60" viewBox="0 0 60 60" fill="none" xmlns="http://www.w3.org/2000/svg">
<circle cx="30" cy="30" r="30" fill="#9F8772"/>
<g clip-path="url(#clip0_253_32)">
<path d="M30.6667 46C27.6223 46 25.0279 44.9278 22.8834 42.7833C20.739 40.6389 19.6667 38.0444 19.6667 35V23C19.6667 22.1556 19.9612 21.4444 20.5501 20.8667C21.139 20.2889 21.8445 20 22.6667 20C22.8223 20 22.989 20.0167 23.1667 20.05C23.3445 20.0833 23.5112 20.1222 23.6667 20.1667V19C23.6667 18.1556 23.9612 17.4444 24.5501 16.8667C25.139 16.2889 25.8445 16 26.6667 16C26.8445 16 27.0279 16.0167 27.2167 16.05C27.4056 16.0833 27.589 16.1333 27.7667 16.2C28.0112 15.5556 28.3945 15.0278 28.9167 14.6167C29.439 14.2056 30.0223 14 30.6667 14C31.4445 14 32.139 14.2833 32.7501 14.85C33.3612 15.4167 33.6667 16.0889 33.6667 16.8667C33.7779 16.8222 33.9223 16.7778 34.1001 16.7333C34.2779 16.6889 34.4667 16.6667 34.6667 16.6667C35.5112 16.6667 36.2223 16.9556 36.8001 17.5333C37.3779 18.1111 37.6667 18.8222 37.6667 19.6667V25.1333C37.8445 25.0889 38.0279 25.0556 38.2167 25.0333C38.4056 25.0111 38.5556 25 38.6667 25C39.5112 25 40.2223 25.2889 40.8001 25.8667C41.3779 26.4444 41.6667 27.1556 41.6667 28V35C41.6667 38.0444 40.5945 40.6389 38.4501 42.7833C36.3056 44.9278 33.7112 46 30.6667 46ZM30.6667 44C31.9112 44 33.0834 43.7667 34.1834 43.3C35.2834 42.8333 36.239 42.1944 37.0501 41.3833C37.8612 40.5722 38.5001 39.6167 38.9667 38.5167C39.4334 37.4167 39.6667 36.2444 39.6667 35V28C39.6667 27.7111 39.5723 27.4722 39.3834 27.2833C39.1945 27.0944 38.9556 27 38.6667 27C38.4001 27 38.1667 27.0944 37.9667 27.2833C37.7667 27.4722 37.6667 27.7111 37.6667 28V33.6667L37.2334 33.7333C36.2334 33.8889 35.4056 34.3333 34.7501 35.0667C34.0945 35.8 33.7334 36.6667 33.6667 37.6667H31.6667C31.7334 36.4222 32.1279 35.3111 32.8501 34.3333C33.5723 33.3556 34.5112 32.6222 35.6667 32.1333V19.6667C35.6667 19.3778 35.5723 19.1389 35.3834 18.95C35.1945 18.7611 34.9556 18.6667 34.6667 18.6667C34.4001 18.6667 34.1667 18.7611 33.9667 18.95C33.7667 19.1389 33.6667 19.3778 33.6667 19.6667V28.3333H31.6667V17C31.6667 16.7111 31.5723 16.4722 31.3834 16.2833C31.1945 16.0944 30.9556 16 30.6667 16C30.4001 16 30.1667 16.0944 29.9667 16.2833C29.7667 16.4722 29.6667 16.7111 29.6667 17V28.3333H27.6667V19C27.6667 18.7111 27.5723 18.4722 27.3834 18.2833C27.1945 18.0944 26.9556 18 26.6667 18C26.4001 18 26.1667 18.0944 25.9667 18.2833C25.7667 18.4722 25.6667 18.7111 25.6667 19V29.6667H23.6667V23C23.6667 22.7111 23.5723 22.4722 23.3834 22.2833C23.1945 22.0944 22.9556 22 22.6667 22C22.4001 22 22.1667 22.0944 21.9667 22.2833C21.7667 22.4722 21.6667 22.7111 21.6667 23V35C21.6667 36.2444 21.9001 37.4167 22.3667 38.5167C22.8334 39.6167 23.4723 40.5722 24.2834 41.3833C25.0945 42.1944 26.0501 42.8333 27.1501 43.3C28.2501 43.7667 29.4223 44 30.6667 44Z" fill="white"/>
</g>
<defs>
<clipPath id="clip0_253_32">
<rect width="32" height="32" fill="white" transform="translate(14 14)"/>
</clipPath>
</defs>
</svg>
