<svg width="60" height="60" viewBox="0 0 60 60" fill="none" xmlns="http://www.w3.org/2000/svg">
<circle cx="30" cy="30" r="30" fill="#9F8772"/>
<path d="M37.0833 16.0105C38.6417 16.0105 39.9757 16.5654 41.0854 17.6751C42.1951 18.7848 42.75 20.1188 42.75 21.6772C42.75 21.9369 42.7323 22.2852 42.6969 22.722C42.6615 23.1588 42.6083 23.6605 42.5375 24.2272L40.5896 38.5001C40.4715 39.4681 40.0465 40.2178 39.3146 40.749C38.5826 41.2803 37.8035 41.5459 36.9771 41.5459C36.4813 41.5459 35.9972 41.4397 35.525 41.2272C35.0528 41.0147 34.6514 40.6723 34.3208 40.2001L30.5312 34.6751C30.484 34.6042 30.4073 34.5452 30.301 34.498C30.1948 34.4508 30.0826 34.4272 29.9646 34.4272C29.9174 34.4272 29.7285 34.5334 29.3979 34.7459L25.7146 40.0938C25.384 40.5897 24.9708 40.9556 24.475 41.1917C23.9792 41.4279 23.4715 41.5459 22.9521 41.5459C22.1257 41.5459 21.3524 41.2803 20.6323 40.749C19.9122 40.2178 19.4931 39.4563 19.375 38.4647L17.4625 24.2272C17.3917 23.6605 17.3385 23.1588 17.3031 22.722C17.2677 22.2852 17.25 21.9369 17.25 21.6772C17.25 20.1188 17.8049 18.7848 18.9146 17.6751C20.0243 16.5654 21.3583 16.0105 22.9167 16.0105C23.7667 16.0105 24.4455 16.1227 24.9531 16.347C25.4608 16.5713 25.9507 16.8133 26.4229 17.073C26.8951 17.3327 27.3969 17.5747 27.9281 17.799C28.4594 18.0233 29.15 18.1355 30 18.1355C30.85 18.1355 31.5406 18.0233 32.0719 17.799C32.6031 17.5747 33.1049 17.3327 33.5771 17.073C34.0493 16.8133 34.5451 16.5713 35.0646 16.347C35.584 16.1227 36.2569 16.0105 37.0833 16.0105ZM37.0833 18.1355C36.5403 18.1355 36.0681 18.2181 35.6667 18.3834C35.2653 18.5487 34.8521 18.7612 34.4271 19.0209C33.6715 19.4459 32.9691 19.7588 32.3198 19.9595C31.6705 20.1602 30.8972 20.2605 30 20.2605C29.1028 20.2605 28.3354 20.1602 27.6979 19.9595C27.0604 19.7588 26.3639 19.4459 25.6083 19.0209C25.1833 18.7612 24.7642 18.5487 24.351 18.3834C23.9378 18.2181 23.4597 18.1355 22.9167 18.1355C21.925 18.1355 21.0868 18.4779 20.4021 19.1626C19.7174 19.8473 19.375 20.6855 19.375 21.6772C19.375 21.8661 19.3868 22.1494 19.4104 22.5272C19.434 22.9049 19.4813 23.3417 19.5521 23.8376L21.5 38.1459C21.5472 38.5473 21.7184 38.8542 22.0135 39.0667C22.3087 39.2792 22.6215 39.3855 22.9521 39.3855C23.1646 39.3855 23.3653 39.3324 23.5542 39.2261C23.7431 39.1199 23.9083 38.9723 24.05 38.7834L27.6271 33.5417C27.9104 33.1404 28.2646 32.8334 28.6896 32.6209C29.1146 32.4084 29.5514 32.3022 30 32.3022C30.4486 32.3022 30.8795 32.4084 31.2927 32.6209C31.7059 32.8334 32.0542 33.1404 32.3375 33.5417L35.9854 38.8897C36.1035 39.0786 36.2569 39.2143 36.4458 39.297C36.6347 39.3796 36.8236 39.4209 37.0125 39.4209C37.3431 39.4209 37.6559 39.3088 37.951 39.0845C38.2462 38.8602 38.4174 38.5709 38.4646 38.2167L40.4479 23.8376C40.5187 23.3417 40.566 22.9049 40.5896 22.5272C40.6132 22.1494 40.625 21.8661 40.625 21.6772C40.625 20.6855 40.2826 19.8473 39.5979 19.1626C38.9132 18.4779 38.075 18.1355 37.0833 18.1355Z" fill="white"/>
</svg>
