<svg width="60" height="60" viewBox="0 0 60 60" fill="none" xmlns="http://www.w3.org/2000/svg">
<circle cx="30" cy="30" r="30" fill="#9F8772"/>
<g clip-path="url(#clip0_254_33)">
<path d="M29.9999 44.6667C30.5111 44.6667 31.0222 44.6333 31.5333 44.5667C32.0444 44.5 32.5555 44.4111 33.0666 44.3C34.9777 45.7889 37.1166 46.3056 39.4833 45.85C41.85 45.3944 43.6555 44.1222 44.9 42.0333C45.8777 40.3889 46.2111 38.6333 45.9 36.7667C45.5888 34.9 44.7222 33.3222 43.3 32.0333V31.9333C44.7222 30.6667 45.5833 29.1 45.8833 27.2333C46.1833 25.3667 45.8555 23.6111 44.9 21.9667C44.0777 20.5667 42.95 19.5167 41.5166 18.8167C40.0833 18.1167 38.5666 17.8667 36.9666 18.0667C36.2555 16.8 35.2833 15.8056 34.0499 15.0833C32.8166 14.3611 31.4666 14 29.9999 14C28.5333 14 27.1833 14.3611 25.9499 15.0833C24.7166 15.8056 23.7444 16.8 23.0333 18.0667C21.4333 17.8667 19.9166 18.1167 18.4833 18.8167C17.0499 19.5167 15.9222 20.5667 15.0999 21.9667C14.1444 23.6111 13.8166 25.3667 14.1166 27.2333C14.4166 29.1 15.2777 30.6667 16.6999 31.9333V32.0333C15.2777 33.3222 14.4111 34.9 14.0999 36.7667C13.7888 38.6333 14.1222 40.3889 15.0999 42.0333C16.3444 44.1222 18.1499 45.3944 20.5166 45.85C22.8833 46.3056 25.0222 45.7889 26.9333 44.3C27.4444 44.4111 27.9555 44.5 28.4666 44.5667C28.9777 44.6333 29.4888 44.6667 29.9999 44.6667ZM24.3999 43.4333C23.0666 44.0778 21.6722 44.1667 20.2166 43.7C18.7611 43.2333 17.6444 42.3556 16.8666 41.0667C16.2666 40.0667 15.9777 39 15.9999 37.8667C16.0222 36.7333 16.3888 35.6889 17.0999 34.7333C17.3666 35.6889 17.7277 36.6 18.1833 37.4667C18.6388 38.3333 19.1777 39.1444 19.7999 39.9C20.4222 40.6556 21.1166 41.3278 21.8833 41.9167C22.6499 42.5056 23.4888 43.0111 24.3999 43.4333ZM35.6 43.4333C36.5111 43.0111 37.35 42.5056 38.1166 41.9167C38.8833 41.3278 39.5777 40.6556 40.2 39.9C40.8222 39.1444 41.3666 38.3333 41.8333 37.4667C42.3 36.6 42.6555 35.6889 42.9 34.7333C43.6111 35.6889 43.9777 36.7333 44 37.8667C44.0222 39 43.7333 40.0667 43.1333 41.0667C42.3555 42.3556 41.2388 43.2333 39.7833 43.7C38.3277 44.1667 36.9333 44.0778 35.6 43.4333ZM29.9999 42.6667C26.8444 42.6667 24.1666 41.5667 21.9666 39.3667C19.7666 37.1667 18.6666 34.4889 18.6666 31.3333C18.6666 28.5778 19.5222 26.1722 21.2333 24.1167C22.9444 22.0611 25.0999 20.7667 27.6999 20.2333C27.6777 20.3667 27.6666 20.4944 27.6666 20.6167V21C27.6666 23.1778 28.4277 25.0278 29.9499 26.55C31.4722 28.0722 33.3222 28.8333 35.5 28.8333C36.5 28.8333 37.4222 28.6722 38.2666 28.35C39.1111 28.0278 39.8555 27.5889 40.5 27.0333C40.7666 27.7 40.9722 28.3944 41.1166 29.1167C41.2611 29.8389 41.3333 30.5778 41.3333 31.3333C41.3333 34.4889 40.2333 37.1667 38.0333 39.3667C35.8333 41.5667 33.1555 42.6667 29.9999 42.6667ZM25.7999 34.5667C25.2888 34.5667 24.8611 34.3944 24.5166 34.05C24.1722 33.7056 23.9999 33.2778 23.9999 32.7667C23.9999 32.2556 24.1722 31.8278 24.5166 31.4833C24.8611 31.1389 25.2888 30.9667 25.7999 30.9667C26.3111 30.9667 26.7388 31.1389 27.0833 31.4833C27.4277 31.8278 27.5999 32.2556 27.5999 32.7667C27.5999 33.2778 27.4277 33.7056 27.0833 34.05C26.7388 34.3944 26.3111 34.5667 25.7999 34.5667ZM34.2333 34.5667C33.7222 34.5667 33.2944 34.3944 32.9499 34.05C32.6055 33.7056 32.4333 33.2778 32.4333 32.7667C32.4333 32.2556 32.6055 31.8278 32.9499 31.4833C33.2944 31.1389 33.7222 30.9667 34.2333 30.9667C34.7444 30.9667 35.1722 31.1389 35.5166 31.4833C35.8611 31.8278 36.0333 32.2556 36.0333 32.7667C36.0333 33.2778 35.8611 33.7056 35.5166 34.05C35.1722 34.3944 34.7444 34.5667 34.2333 34.5667ZM16.8999 28.9C16.3222 27.9444 16.0222 26.9611 15.9999 25.95C15.9777 24.9389 16.2555 23.9444 16.8333 22.9667C17.4555 21.9 18.3111 21.1056 19.3999 20.5833C20.4888 20.0611 21.6333 19.9 22.8333 20.1C22.0555 20.5889 21.3444 21.1444 20.6999 21.7667C20.0555 22.3889 19.4777 23.0778 18.9666 23.8333C18.4555 24.5889 18.0277 25.3889 17.6833 26.2333C17.3388 27.0778 17.0777 27.9667 16.8999 28.9ZM43.1 28.9C42.9222 27.9667 42.6611 27.0778 42.3166 26.2333C41.9722 25.3889 41.5444 24.5889 41.0333 23.8333C40.5222 23.0778 39.9444 22.3889 39.2999 21.7667C38.6555 21.1444 37.9444 20.5889 37.1666 20.1C38.3666 19.9 39.5111 20.0611 40.6 20.5833C41.6888 21.1056 42.5444 21.9 43.1666 22.9667C43.7444 23.9444 44.0222 24.9389 44 25.95C43.9777 26.9611 43.6777 27.9444 43.1 28.9ZM35.5 26.8333C33.9 26.8333 32.5277 26.2611 31.3833 25.1167C30.2388 23.9722 29.6666 22.6 29.6666 21C29.6666 20.8222 29.6722 20.6556 29.6833 20.5C29.6944 20.3444 29.7222 20.1778 29.7666 20H29.9999C31.0222 20 31.9944 20.1222 32.9166 20.3667C33.8388 20.6111 34.7111 20.9667 35.5333 21.4333C36.3555 21.9 37.1055 22.4556 37.7833 23.1C38.4611 23.7444 39.0555 24.4667 39.5666 25.2667C39.0777 25.7556 38.5 26.1389 37.8333 26.4167C37.1666 26.6944 36.3888 26.8333 35.5 26.8333ZM35.0666 19C34.2888 18.6889 33.4777 18.4444 32.6333 18.2667C31.7888 18.0889 30.9111 18 29.9999 18C29.0888 18 28.2111 18.0889 27.3666 18.2667C26.5222 18.4444 25.7111 18.6889 24.9333 19C25.5777 18.1556 26.3222 17.4444 27.1666 16.8667C28.0111 16.2889 28.9555 16 29.9999 16C31.0444 16 31.9888 16.2889 32.8333 16.8667C33.6777 17.4444 34.4222 18.1556 35.0666 19Z" fill="white"/>
</g>
<defs>
<clipPath id="clip0_254_33">
<rect width="32" height="32" fill="white" transform="translate(14 14)"/>
</clipPath>
</defs>
</svg>
